<?xml version="1.0" encoding="UTF-8"?>
<svg id="Layer_1" xmlns="http://www.w3.org/2000/svg" version="1.1" viewBox="0 0 834.23 1446.23">
  <!-- Generator: Adobe Illustrator 30.2.1, SVG Export Plug-In . SVG Version: 2.1.1 Build 1)  -->
  <defs>
    <style>
      .st0 {
        fill: #e2dfd7;
      }
    </style>
  </defs>
  <g>
    <g>
      <path class="st0" d="M412.88,501.45h0v823.19c0,77.79-63.16,140.95-140.95,140.95h-22.96v-800.24c0-90.46,73.44-163.9,163.9-163.9Z" transform="translate(-598.52 522.07) rotate(-45)"/>
      <path class="st0" d="M183.6,720.29s-95.35-127.35,25.09-225.07c0,0-72.15.95-160.68,89.48,0,0,49.71,140.8,135.59,135.59Z"/>
    </g>
    <g>
      <path class="st0" d="M467.33,247.02h0v920.56c0,24.05-19.53,43.58-43.58,43.58h-120.32V410.93c0-90.46,73.44-163.9,163.9-163.9Z" transform="translate(-402.67 486.05) rotate(-45)"/>
      <path class="st0" d="M606.66,1066.27s64.2,59.08-6.25,129.53l81.81-81.81-75.56-47.72Z"/>
      <path class="st0" d="M238.04,465.86s-95.35-127.35,25.09-225.07c0,0-72.15.95-160.68,89.48,0,0,49.71,140.8,135.59,135.59Z"/>
    </g>
    <g>
      <path class="st0" d="M535.41,6.23h0v920.56c0,24.05-19.53,43.58-43.58,43.58h-120.32V170.14c0-90.46,73.44-163.9,163.9-163.9Z" transform="translate(-212.47 463.66) rotate(-45)"/>
      <path class="st0" d="M674.74,825.48s64.2,59.08-6.25,129.53l81.81-81.81-75.56-47.72Z"/>
      <path class="st0" d="M306.12,225.07S210.77,97.72,331.22,0c0,0-72.15.95-160.68,89.48,0,0,49.71,140.8,135.59,135.59Z"/>
    </g>
  </g>
  <path class="st0" d="M492,1260.49s73.99,85.83,24.56,131.96c-49.43,46.13-166.4,9.89-166.4-56.02,0,0-15.95,42.37,13.18,76.74,14.55,17.17,137.71,83.07,259.43-39.73,0,0,133-111.46-130.76-112.95Z"/>
</svg>